<mxfile host="Electron" agent="Mozilla/5.0 (Windows NT 10.0; Win64; x64) AppleWebKit/537.36 (KHTML, like Gecko) draw.io/27.0.9 Chrome/134.0.6998.205 Electron/35.4.0 Safari/537.36" version="27.0.9">
  <diagram name="第 1 页" id="XLNt2Q3_Ynfy_ZLUAb3g">
    <mxGraphModel dx="781" dy="502" grid="1" gridSize="10" guides="1" tooltips="1" connect="1" arrows="1" fold="1" page="1" pageScale="1" pageWidth="827" pageHeight="1169" math="0" shadow="0">
      <root>
        <mxCell id="0" />
        <mxCell id="1" parent="0" />
        <mxCell id="AaurAkD58ilvl3dcwXz0-1" value="&lt;font style=&quot;font-size: 18px;&quot;&gt;用户端&lt;/font&gt;&lt;div&gt;&lt;font size=&quot;3&quot;&gt;（uni-app小程序）&lt;/font&gt;&lt;/div&gt;" style="rounded=0;whiteSpace=wrap;html=1;" vertex="1" parent="1">
          <mxGeometry x="130" y="100" width="190" height="100" as="geometry" />
        </mxCell>
        <mxCell id="AaurAkD58ilvl3dcwXz0-2" value="" style="endArrow=classic;startArrow=classic;html=1;rounded=0;exitX=1;exitY=0.5;exitDx=0;exitDy=0;" edge="1" parent="1" source="AaurAkD58ilvl3dcwXz0-1">
          <mxGeometry width="50" height="50" relative="1" as="geometry">
            <mxPoint x="390" y="340" as="sourcePoint" />
            <mxPoint x="570" y="150" as="targetPoint" />
            <Array as="points">
              <mxPoint x="480" y="150" />
            </Array>
          </mxGeometry>
        </mxCell>
        <mxCell id="AaurAkD58ilvl3dcwXz0-3" value="&lt;font style=&quot;font-size: 18px;&quot;&gt;后端API服务&lt;/font&gt;&lt;div&gt;&lt;span style=&quot;color: rgb(56, 58, 66); font-family: &amp;quot;Fira Code&amp;quot;, &amp;quot;Fira Mono&amp;quot;, Menlo, Consolas, &amp;quot;DejaVu Sans Mono&amp;quot;, monospace; text-align: left; white-space: pre; background-color: rgb(255, 255, 255);&quot;&gt;&lt;font size=&quot;3&quot;&gt;(Node.js + MongoDB) &lt;/font&gt;&lt;/span&gt;&lt;/div&gt;" style="rounded=0;whiteSpace=wrap;html=1;" vertex="1" parent="1">
          <mxGeometry x="570" y="100" width="200" height="110" as="geometry" />
        </mxCell>
        <mxCell id="AaurAkD58ilvl3dcwXz0-5" value="" style="endArrow=classic;html=1;rounded=0;exitX=0.5;exitY=1;exitDx=0;exitDy=0;entryX=0.5;entryY=0;entryDx=0;entryDy=0;" edge="1" parent="1" source="AaurAkD58ilvl3dcwXz0-3" target="AaurAkD58ilvl3dcwXz0-6">
          <mxGeometry width="50" height="50" relative="1" as="geometry">
            <mxPoint x="480" y="320" as="sourcePoint" />
            <mxPoint x="670" y="370" as="targetPoint" />
          </mxGeometry>
        </mxCell>
        <mxCell id="AaurAkD58ilvl3dcwXz0-6" value="&lt;font style=&quot;font-size: 18px;&quot;&gt;第三方服务&lt;/font&gt;&lt;div&gt;&lt;font size=&quot;3&quot;&gt;（地图API等）&lt;/font&gt;&lt;/div&gt;" style="rounded=0;whiteSpace=wrap;html=1;" vertex="1" parent="1">
          <mxGeometry x="580" y="350" width="180" height="130" as="geometry" />
        </mxCell>
      </root>
    </mxGraphModel>
  </diagram>
</mxfile>
